<svg width="144" height="222" viewBox="0 0 144 222" fill="none" xmlns="http://www.w3.org/2000/svg">
<path d="M98.9412 32.7559C97.0181 34.44 97.5002 38.1561 100.016 41.0513C102.532 43.9464 106.13 44.9294 108.051 43.2444L132.81 29.4048L115.94 9.98091L98.9412 32.7559Z" fill="#F4F3FD"/>
<path d="M133.253 29.0318C129.837 32.0276 123.27 30.126 118.586 24.7842C113.902 19.4424 112.876 12.6831 116.292 9.68731C119.709 6.69146 126.276 8.59305 130.96 13.9348C135.644 19.2766 136.671 26.0353 133.253 29.0318Z" fill="#DADAF7"/>
<path d="M103.163 27.1008C103.838 29.9541 105.217 32.5931 107.172 34.7782C109.057 37.0161 111.474 38.7456 114.2 39.8084L116.558 38.4893C113.577 37.4795 110.931 35.667 108.913 33.2511C106.799 30.9096 105.37 28.0319 104.782 24.9327L103.163 27.1008Z" fill="#DADAF7"/>
<path d="M118.58 24.7818C119.199 25.4945 119.868 26.1629 120.58 26.7819L127.13 22.0816L122.402 16.6394L116.88 22.5207C117.392 23.3138 117.961 24.0694 118.58 24.7818Z" fill="#EAE9FF"/>
<path d="M79.9053 66.0004C89.1167 67.1575 88.6557 77.8009 88.6557 77.8009C88.6557 77.8009 98.0971 79.421 102.472 84.2792C106.847 89.1374 102.472 98.1618 102.472 98.1618C102.472 98.1618 109.611 97.0048 113.295 100.707C116.979 104.409 114.677 110.193 105.694 112.275C96.712 114.358 25.7909 125.001 25.7909 125.001C25.7909 125.001 20.9547 125.697 21.4157 120.838C21.8767 115.979 29.9361 111.814 29.9361 111.814C29.9361 111.814 24.1788 108.806 25.3309 102.791C26.4829 96.7758 34.3113 90.9905 37.5314 88.6764C39.9752 86.9914 42.5127 85.4465 45.1318 84.0492C45.1318 84.0492 44.6987 72.1147 52.0401 68.7785C61.7115 64.3784 66.5477 71.3237 66.5477 71.3237C66.5477 71.3237 70.6939 64.8444 79.9053 66.0004Z" fill="#F99A3D"/>
<path d="M105.463 73.6362C108.687 58.1356 108.456 52.3493 108.456 52.3493C107.886 49.9225 107.577 47.4416 107.535 44.949C107.461 44.0182 107.587 43.0823 107.905 42.2042C108.222 41.3262 108.725 40.5264 109.377 39.8588C112.735 36.4856 118.589 33.1485 125.036 38.2387C131.483 43.3289 128.029 57.4395 128.029 57.4395C128.029 57.4395 128.49 81.9656 125.496 99.7824C122.502 117.599 118.818 120.606 118.818 120.606L95.5628 103.947C99.8186 94.1807 103.134 84.0313 105.463 73.6362Z" fill="#DA5742"/>
<path d="M127.351 21.9104C126.39 22.753 124.543 22.2178 123.226 20.7155C121.908 19.2131 121.619 17.3119 122.58 16.4693C123.541 15.6267 125.389 16.1612 126.706 17.6636C128.024 19.166 128.313 21.0671 127.351 21.9104Z" fill="#F4F3FD"/>
<path d="M7.37121 192.566C3.68405 205.528 8.75027 213.899 11.3984 216.305C14.0465 218.711 37.7645 165.726 37.7645 165.726L15.4276 167.808C15.4276 167.808 11.0524 179.609 7.37121 192.566Z" fill="#C43D28"/>
<path d="M97.7629 98.6508C96.4628 101.951 95.5628 103.951 95.5628 103.951L118.157 120.132L118.949 120.481C119.555 119.838 122.187 116.464 124.641 104.411L97.7629 98.6508Z" fill="#C43D28"/>
<path d="M30.8568 140.505C39.1462 133.104 49.2786 128.936 63.3253 127.547C77.3719 126.158 83.3591 118.293 86.3523 115.052C89.3454 111.812 95.7937 99.7817 95.7937 99.7817L123.427 111.119C122.221 118.464 120.293 125.672 117.67 132.637C115.059 139.219 111.49 145.379 107.077 150.917C107.077 150.917 110.991 167.577 113.755 187.244C116.52 206.91 116.92 215.935 116.92 215.935H35.775L38.4552 181.228L8.98086 169.885C8.98086 169.885 22.5675 147.909 30.8568 140.505Z" fill="#3D5CFF"/>
<path d="M112.164 143.642L98.3266 133.795L107.148 150.829C108.978 148.547 110.653 146.146 112.164 143.642Z" fill="#224BF4"/>
<path d="M56.6465 149.528L40.5278 137.959L17.0007 172.974L38.4557 181.227L35.7756 215.934H50.2022L56.6465 149.528Z" fill="#224BF4"/>
<path d="M9.67132 164.337L43.2908 175.444" stroke="#EAEAFF" stroke-width="1.158" stroke-miterlimit="10"/>
<path d="M90.0372 102.559L126.421 118.987" stroke="#EAEAFF" stroke-width="1.158" stroke-miterlimit="10"/>
<path opacity="0.55" d="M30.3966 137.96C30.3966 137.96 28.3245 157.861 49.9695 160.635C71.6144 163.409 81.9769 153.003 76.6807 148.603C67.3363 140.847 50.1995 160.171 58.4889 168.964C66.7782 177.756 93.3594 170.419 96.9456 181.228C99.4787 188.863 88.1952 192.797 75.9906 187.244C60.574 180.229 73.2265 164.803 93.2604 171.28C113.294 177.756 111.913 193.492 102.246 198.119C85.6941 206.039 62.063 190.337 54.1187 207.142C49.7435 216.398 63.0261 226.335 73.2315 218.711C82.2119 212 85.6661 207.142 109.154 205.985C132.642 204.828 133.102 173.592 120.668 165.031C108.233 156.471 91.4183 154.62 89.1162 140.502C86.8141 126.385 100.63 123.612 102.703 132.635C104.776 141.658 82.9019 152.996 81.5179 137.956C79.8828 120.155 95.5645 118.289 108.23 120.371C120.896 122.453 130.565 117.83 123.427 109.501" stroke="#EAEAFF" stroke-width="1.158" stroke-miterlimit="10"/>
<path d="M51.5808 96.0803C48.3567 97.7004 48.1267 102.559 49.5067 105.104C50.8868 107.649 52.9629 108.575 55.495 109.042C56.8579 109.322 58.2546 109.4 59.6402 109.273C59.6402 109.273 59.8702 115.52 59.6402 121.767C59.4102 128.015 58.4891 129.168 58.4891 129.168C62.2869 130.971 66.5087 131.692 70.6897 131.25C77.828 130.556 78.979 128.705 78.979 128.705C78.979 128.705 78.288 124.078 78.058 120.604C77.828 117.131 77.597 115.283 77.597 115.283C77.597 115.283 85.6563 112.969 86.1174 104.64C86.5784 96.3103 86.1174 94.2273 86.1174 94.2273C86.1174 94.2273 83.1242 93.3022 81.2811 87.517C79.4381 81.7317 78.062 81.0407 75.7599 81.0407C73.4578 81.0407 72.9968 83.8168 72.9968 83.8168C72.9968 83.8168 71.1447 80.3206 66.7785 81.9657C63.0943 83.3538 64.4784 88.907 62.8643 92.3782C62.4414 93.3625 61.811 94.244 61.0162 94.9625C60.2215 95.681 59.281 96.2195 58.2591 96.5414C58.2591 96.5414 54.807 94.4603 51.5808 96.0803Z" fill="#DA5742"/>
<path d="M62.174 117.599C61.4377 117.166 60.5933 116.952 59.7399 116.983C59.7309 118.503 59.7009 120.132 59.6399 121.763C59.4109 128.011 58.4899 129.168 58.4899 129.168C60.2698 130.043 62.1684 130.653 64.1251 130.977C64.3021 130.225 64.5371 129.068 64.7902 127.377C65.3332 123.733 64.4771 118.983 62.174 117.599Z" fill="#C43D28"/>
<path d="M65.6275 92.3784C65.6275 92.3784 65.1665 90.7583 66.5485 90.2953C66.7147 90.2186 66.8944 90.1757 67.0773 90.169C67.2602 90.1622 67.4425 90.1919 67.6139 90.2561C67.7852 90.3204 67.9421 90.4181 68.0754 90.5434C68.2088 90.6687 68.3159 90.8193 68.3906 90.9864" fill="white"/>
<path d="M76.6811 88.6764C76.7038 88.3167 76.8566 87.9775 77.1108 87.7222C77.3651 87.4668 77.7036 87.3126 78.0632 87.2883C78.4298 87.2074 78.813 87.2553 79.1485 87.4237C79.4839 87.5922 79.7512 87.871 79.9052 88.2133" fill="white"/>
<path d="M74.2935 92.3869C74.5639 92.6212 74.8163 92.8756 75.0485 93.1479C75.2826 93.4332 75.4801 93.7467 75.6365 94.0809L75.7365 94.3509C75.7529 94.3985 75.7653 94.4473 75.7735 94.497C75.7847 94.548 75.7924 94.5998 75.7965 94.652C75.8155 94.8659 75.7757 95.081 75.6815 95.274C75.4886 95.6161 75.193 95.889 74.8365 96.054C74.1919 96.3628 73.488 96.528 72.7734 96.538C73.4329 96.3509 74.0665 96.0821 74.6595 95.738C74.927 95.5844 75.1458 95.3584 75.2905 95.086C75.3471 94.9607 75.3685 94.8225 75.3525 94.686C75.3503 94.6522 75.345 94.6187 75.3365 94.586C75.3302 94.5497 75.3201 94.5142 75.3065 94.48L75.2235 94.2579C74.9262 93.6579 74.53 93.1123 74.0515 92.6439C73.5744 92.1529 73.0634 91.6858 72.5364 91.2208C73.1706 91.5309 73.7613 91.923 74.2935 92.3869Z" fill="#1F1F39"/>
<path d="M68.2536 97.4543C67.8696 97.4502 67.5024 97.2967 67.2297 97.0263C66.9571 96.7558 66.8006 96.3898 66.7934 96.0059C66.7051 95.6324 66.7658 95.2391 66.9626 94.9096C67.1594 94.5801 67.4768 94.3402 67.8475 94.2407C68.2311 94.2451 68.598 94.3986 68.8703 94.6688C69.1427 94.939 69.2992 95.3047 69.3065 95.6883C69.3951 96.0617 69.3347 96.4551 69.1381 96.7848C68.9416 97.1145 68.6243 97.3546 68.2536 97.4543Z" fill="#1F1F39"/>
<path d="M79.9952 96.0681C79.6112 96.0639 79.244 95.9102 78.9715 95.6397C78.6989 95.3692 78.5426 95.0031 78.5355 94.6192C78.4474 94.2456 78.5082 93.8524 78.7051 93.523C78.902 93.1935 79.2195 92.9537 79.5902 92.8544C79.9739 92.8589 80.3407 93.0126 80.6129 93.2829C80.8852 93.5532 81.0415 93.9189 81.0488 94.3025C81.1372 94.676 81.0767 95.0693 80.88 95.3989C80.6833 95.7285 80.3659 95.9686 79.9952 96.0681Z" fill="#1F1F39"/>
<path d="M74.8383 100.476C75.8671 100.278 76.8711 99.9679 77.8324 99.5513C77.8324 99.5513 79.2145 103.251 77.8324 106.262C77.5904 106.843 77.1868 107.344 76.6694 107.704C76.152 108.063 75.5424 108.267 74.9127 108.292C74.283 108.316 73.6595 108.159 73.1159 107.841C72.5723 107.522 72.1313 107.054 71.8452 106.493C71.2281 104.627 70.9171 102.673 70.9241 100.708C72.233 100.833 73.5533 100.755 74.8383 100.476Z" fill="white"/>
<path d="M59.6407 109.264C59.6407 109.264 59.6407 109.377 59.6527 109.586C60.1425 107.748 60.2947 105.836 60.1017 103.943C59.8502 101.402 59.2745 98.9036 58.3887 96.5087L58.2597 96.5437C58.2597 96.5437 54.8075 94.4637 51.5814 96.0807C48.3552 97.6978 48.1272 102.564 49.5073 105.104C50.8873 107.644 52.9614 108.575 55.4945 109.037C56.858 109.316 58.255 109.392 59.6407 109.264Z" fill="#C43D28"/>
<path d="M52.5023 100.245C54.2457 101.019 55.8733 102.031 57.3385 103.253C59.8706 105.335 60.1026 106.723 60.1026 106.723" stroke="#1F1F39" stroke-width="0.579" stroke-miterlimit="10" stroke-linecap="round"/>
<path d="M125.038 38.2363C121.596 35.5222 118.324 35.2031 115.51 36.0122C117.29 41.0914 121.465 52.6669 123.426 55.358C123.963 56.0991 124.652 56.7162 125.448 57.1672C126.244 57.6183 127.127 57.8928 128.039 57.9721C128.039 57.6271 128.032 57.4401 128.032 57.4401C128.032 57.4401 131.487 43.3225 125.038 38.2363Z" fill="#C43D28"/>
<path d="M71.8456 118.293C73.7188 119.655 75.8461 120.628 78.1019 121.155C78.0879 120.97 78.0739 120.787 78.0629 120.607C77.8629 117.639 77.6689 115.859 77.6159 115.406C77.2909 115.436 76.9338 115.471 76.5408 115.517C74.5607 115.746 68.3915 114.821 68.3915 114.821C68.3915 114.821 67.4704 115.284 71.8456 118.293Z" fill="#C43D28"/>
<path d="M128.539 54.7374C127.903 55.1031 127.149 55.2014 126.441 55.0109C125.733 54.8204 125.13 54.3565 124.764 53.7214L116.475 39.2957C116.111 38.6577 116.013 37.9019 116.202 37.192C116.391 36.4822 116.853 35.8755 117.486 35.5036L118.086 35.1565C118.721 34.7914 119.475 34.6933 120.182 34.8836C120.889 35.0739 121.492 35.5372 121.858 36.1716L130.148 50.5982C130.511 51.2359 130.608 51.9908 130.419 52.6999C130.23 53.4089 129.77 54.0151 129.138 54.3874L128.539 54.7374Z" fill="#DADAF7"/>
<path d="M68.1612 114.591C69.8614 115.203 71.6546 115.516 73.4614 115.516C74.8459 115.556 76.2313 115.479 77.6026 115.285" stroke="#1F1F39" stroke-width="0.579" stroke-miterlimit="10" stroke-linecap="round"/>
<path d="M120.433 38.2354C120.206 39.0954 120.29 40.0079 120.669 40.8126C121.047 41.6173 121.698 42.2628 122.505 42.6356C122.279 43.8094 122.441 45.025 122.966 46.0988C123.154 46.6568 123.537 47.1281 124.045 47.4259C124.553 47.7236 125.151 47.8277 125.73 47.7188C125.73 47.7188 125.038 50.4989 128.493 51.424C131.947 52.349 134.71 49.3419 134.25 46.7968C133.573 43.4814 132.409 40.2845 130.796 37.3104C130.479 36.6902 130.041 36.1399 129.508 35.692C128.974 35.2441 128.357 34.9078 127.691 34.7028C127.026 34.4979 126.326 34.4285 125.633 34.4988C124.94 34.5692 124.268 34.7778 123.657 35.1123C122.298 35.7363 120.739 36.8053 120.433 38.2354Z" fill="#DA5742"/>
<path d="M122.639 42.6783L127.801 40.3182L122.639 42.6783Z" fill="#1F1F39"/>
<path d="M122.639 42.6783L127.801 40.3182" stroke="#1F1F39" stroke-width="0.579" stroke-miterlimit="10" stroke-linecap="round"/>
<path d="M125.729 47.7208L131.029 45.6387L125.729 47.7208Z" fill="#1F1F39"/>
<path d="M125.729 47.7208L131.029 45.6387" stroke="#1F1F39" stroke-width="0.579" stroke-miterlimit="10" stroke-linecap="round"/>
<path d="M127.111 4.45426L128.953 0.289075L127.111 4.45426Z" fill="#1F1F39"/>
<path d="M127.111 4.45426L128.953 0.289075" stroke="#1F1F39" stroke-width="0.579" stroke-miterlimit="10" stroke-linecap="round"/>
<path d="M136.393 12.7003L140.393 10.5532L136.393 12.7003Z" fill="#1F1F39"/>
<path d="M136.393 12.7003L140.393 10.5532" stroke="#1F1F39" stroke-width="0.579" stroke-miterlimit="10" stroke-linecap="round"/>
<path d="M138.429 24.9855L142.965 25.1055L138.429 24.9855Z" fill="#1F1F39"/>
<path d="M138.429 24.9855L142.965 25.1055" stroke="#1F1F39" stroke-width="0.579" stroke-miterlimit="10" stroke-linecap="round"/>
<path d="M98.3266 133.795L99.9827 137.034L107.077 150.917" stroke="#1F1F39" stroke-width="0.579" stroke-miterlimit="10" stroke-linecap="round"/>
<path d="M108.14 41.2911C108.14 41.2911 112.265 36.4399 114.968 36.0649C117.671 35.6899 119.051 36.6149 118.821 39.623C118.591 42.6312 114.215 45.6393 114.215 45.6393" fill="#DA5742"/>
<path d="M108.14 41.2911C108.14 41.2911 112.265 36.4399 114.968 36.0649C117.671 35.6899 119.051 36.6149 118.821 39.623C118.591 42.6312 114.215 45.6393 114.215 45.6393" stroke="#1F1F39" stroke-width="0.579" stroke-miterlimit="10" stroke-linecap="round"/>
<path d="M78.3939 104.16C77.4691 103.865 76.488 103.792 75.5298 103.947C74.0818 104.119 72.6953 104.632 71.4836 105.444C71.5766 105.802 71.6977 106.152 71.8456 106.492C72.1319 107.053 72.5728 107.52 73.1163 107.839C73.6598 108.158 74.2831 108.314 74.9126 108.29C75.5421 108.266 76.1515 108.062 76.6688 107.702C77.1861 107.342 77.5897 106.842 77.8319 106.261C78.13 105.595 78.3197 104.886 78.3939 104.16Z" fill="#F9D2DD"/>
<path d="M84.9862 101.982C82.26 102.203 79.9384 101.015 79.8017 99.3288C79.665 97.6423 81.7651 96.0966 84.4913 95.8756C87.2175 95.6547 89.5391 96.8421 89.6758 98.5287C89.8124 100.215 87.7133 101.761 84.9862 101.982Z" fill="#C43D28"/>
<path d="M65.5693 104.466C62.8431 104.687 60.5215 103.5 60.3848 101.813C60.2482 100.127 62.3483 98.581 65.0744 98.3601C67.8006 98.1392 70.1222 99.3266 70.2589 101.013C70.3956 102.7 68.2965 104.245 65.5693 104.466Z" fill="#C43D28"/>
<path d="M0 215.935H139.776H0Z" fill="#1F1F39"/>
<path d="M0 215.935H139.776" stroke="#1F1F39" stroke-width="0.579" stroke-miterlimit="10"/>
<path d="M25.0991 168.27C30.1653 159.709 36.8646 139.223 39.1587 135.236C39.7226 134.126 40.5915 133.2 41.6634 132.566C42.7353 131.933 43.9657 131.619 45.21 131.661C45.21 131.661 44.446 121.76 44.446 118.291C44.446 114.822 46.7461 112.507 48.8212 114.126C50.8963 115.745 52.5053 127.777 52.5053 127.777C52.5053 127.777 57.2895 117.57 59.7327 117.816C62.1758 118.062 62.8648 120.144 61.7127 124.54C60.8316 127.689 59.7548 130.781 58.4886 133.796C58.4886 133.796 62.4028 131.482 64.2458 133.565C66.0889 135.648 62.8598 140.736 60.3317 144.206C59.0492 145.891 57.8946 147.67 56.8775 149.527C56.8775 149.527 48.3591 193.721 43.7519 205.754C39.1447 217.786 29.9353 222.414 22.337 221.719C14.7387 221.024 5.29625 215.24 8.98042 200.204C8.98042 200.204 20.0339 176.832 25.0991 168.27Z" fill="#DA5742"/>
<path d="M40.9891 140.504C40.9891 140.504 41.2191 144.204 43.2892 145.131C45.3593 146.058 46.7434 144.206 47.2034 142.355C47.4486 140.434 47.4497 138.491 47.2064 136.57" stroke="#1F1F39" stroke-width="0.579" stroke-miterlimit="10" stroke-linecap="round"/>
<path d="M47.2062 143.515C47.2062 143.515 47.8972 146.06 49.9693 145.366C52.0414 144.672 52.5064 142.586 52.7324 140.273C52.8513 138.65 52.7754 137.019 52.5064 135.414" stroke="#1F1F39" stroke-width="0.579" stroke-miterlimit="10" stroke-linecap="round"/>
<path d="M54.5747 137.034C54.5747 137.034 56.1867 135.646 57.1078 134.952C57.5923 134.596 58.0536 134.21 58.4888 133.795" stroke="#1F1F39" stroke-width="0.579" stroke-miterlimit="10" stroke-linecap="round"/>
<path d="M40.5311 133.796C40.5311 133.796 40.9891 132.176 45.1313 131.714C47.5187 131.42 49.94 131.578 52.2696 132.177" stroke="#1F1F39" stroke-width="0.579" stroke-miterlimit="10" stroke-linecap="round"/>
</svg>
