<svg width="96" height="26" viewBox="0 0 96 26" fill="none" xmlns="http://www.w3.org/2000/svg">
<path d="M80.58 0C81.4984 0.0018034 82.3882 0.319596 83.1 0.9L94.177 9.9C94.6386 10.2751 95.0108 10.7483 95.2664 11.2854C95.522 11.8224 95.6547 12.4097 95.6547 13.0045C95.6547 13.5993 95.522 14.1866 95.2664 14.7236C95.0108 15.2607 94.6386 15.7339 94.177 16.109L83.1 25.1C82.3877 25.6808 81.4971 25.9987 80.578 26H4C2.93913 26 1.92172 25.5786 1.17157 24.8284C0.421427 24.0783 0 23.0609 0 22V4C0 2.93913 0.421427 1.92172 1.17157 1.17157C1.92172 0.421427 2.93913 0 4 0L80.58 0Z" fill="#FFD301"/>
</svg>
