<svg width="19" height="18" viewBox="0 0 19 18" fill="none" xmlns="http://www.w3.org/2000/svg">
<path d="M14.7199 18.0004C14.5794 17.9994 14.4413 17.9641 14.3176 17.8975L9.42933 15.2939L4.54101 17.8975C4.39923 17.973 4.23907 18.0072 4.0788 17.9961C3.91854 17.985 3.76463 17.929 3.63463 17.8346C3.50463 17.7402 3.40379 17.6112 3.3436 17.4623C3.28341 17.3133 3.26631 17.1505 3.29424 16.9922L4.24578 11.5762L0.25756 7.67955C0.143377 7.5677 0.0627134 7.42617 0.0246631 7.27092C-0.0133872 7.11567 -0.00731066 6.95289 0.0422076 6.80091C0.0917259 6.64893 0.182717 6.51381 0.30492 6.41078C0.427124 6.30775 0.575681 6.2409 0.733842 6.21779L6.23731 5.41953L8.65884 0.478746C8.72949 0.335082 8.83898 0.214084 8.97488 0.129467C9.11079 0.0448504 9.26769 0 9.42778 0C9.58788 0 9.74477 0.0448504 9.88068 0.129467C10.0166 0.214084 10.1261 0.335082 10.1967 0.478746L12.6522 5.41953L18.1269 6.21882C18.2848 6.24186 18.4332 6.30857 18.5553 6.41142C18.6774 6.51427 18.7683 6.64918 18.8178 6.80093C18.8673 6.95269 18.8734 7.11525 18.8355 7.27031C18.7976 7.42537 18.7171 7.56675 18.6032 7.67852L14.6221 11.5783L15.5675 16.9953C15.5945 17.1535 15.5769 17.316 15.5165 17.4647C15.4562 17.6133 15.3556 17.7422 15.226 17.8368C15.079 17.9438 14.9017 18.0011 14.7199 18.0004ZM9.4283 13.4659C9.56911 13.4667 9.70758 13.502 9.83154 13.5688L13.578 15.5603L12.8579 11.4291C12.8338 11.292 12.8434 11.1511 12.8861 11.0187C12.9288 10.8862 13.0032 10.7661 13.1028 10.6689L16.1703 7.66412L11.964 7.04691C11.8262 7.02783 11.6951 6.97554 11.5821 6.89454C11.469 6.81354 11.3773 6.70626 11.3149 6.58194L9.43344 2.79432L7.57769 6.58194C7.51626 6.70715 7.42523 6.8155 7.31248 6.89759C7.19973 6.97969 7.06867 7.03306 6.93065 7.05308L2.69555 7.67029L5.76617 10.673C5.86614 10.7704 5.94079 10.8908 5.98364 11.0237C6.02649 11.1565 6.03623 11.2978 6.01203 11.4353L5.28681 15.5593L9.02505 13.5657C9.14929 13.5 9.28775 13.4657 9.4283 13.4659Z" fill="#FF6905"/>
</svg>
