<svg width="16" height="16" viewBox="0 0 16 16" fill="none" xmlns="http://www.w3.org/2000/svg">
<path d="M16 0H0V16H16V0Z" fill="white"/>
<path d="M13.9995 14.667C13.9117 14.6665 13.8248 14.6486 13.7439 14.6143C13.6631 14.58 13.5898 14.5299 13.5285 14.467L9.10952 10.053C8.6675 10.2916 8.16026 10.3813 7.6632 10.3087C7.16614 10.2361 6.70577 10.005 6.3505 9.64985C5.99523 9.2947 5.76403 8.8344 5.69125 8.33736C5.61847 7.84032 5.708 7.33306 5.94652 6.89096L1.52852 2.47296C1.45626 2.41403 1.39716 2.34059 1.35503 2.25741C1.3129 2.17422 1.28868 2.08312 1.28394 1.98999C1.27919 1.89687 1.29403 1.80378 1.32749 1.71674C1.36095 1.6297 1.41228 1.55064 1.47818 1.48467C1.54408 1.4187 1.62309 1.36728 1.71009 1.33373C1.79709 1.30018 1.89016 1.28525 1.98329 1.28989C2.07643 1.29453 2.16755 1.31865 2.25078 1.36069C2.33402 1.40273 2.40751 1.46176 2.46652 1.53396L14.4665 13.534C14.5596 13.6273 14.6229 13.7461 14.6485 13.8754C14.6741 14.0047 14.6609 14.1387 14.6103 14.2605C14.5598 14.3823 14.4744 14.4863 14.3648 14.5596C14.2552 14.6328 14.1263 14.6719 13.9945 14.672L13.9995 14.667ZM6.99952 7.94496C6.99952 7.96296 6.99952 7.98196 6.99952 7.99996C6.99952 8.26518 7.10488 8.51953 7.29241 8.70707C7.47995 8.8946 7.73431 8.99996 7.99952 8.99996H8.05252L6.99952 7.94496ZM7.99952 12.667C6.09179 12.5534 4.27947 11.7942 2.86052 10.514C2.32604 10.0701 1.8247 9.58786 1.36052 9.07096C1.17652 8.87096 1.03852 8.69996 0.950521 8.59196C0.903521 8.53396 0.866521 8.48696 0.841521 8.45496L0.811521 8.41596L0.802521 8.40396C0.950833 8.27373 1.10786 8.15379 1.27252 8.04496L0.798521 8.39796C0.712483 8.28235 0.666016 8.14207 0.666016 7.99796C0.666016 7.85385 0.712483 7.71357 0.798521 7.59796L0.832521 7.62196L0.799521 7.60196V7.59596L0.808521 7.58496L0.821521 7.56796L0.838521 7.54596C0.863521 7.51396 0.900521 7.46696 0.948521 7.40796C1.07552 7.25196 1.21352 7.09096 1.35852 6.92896C1.8227 6.41206 2.32404 5.92978 2.85852 5.48596C2.99484 5.37284 3.17052 5.31852 3.34689 5.33493C3.52327 5.35134 3.68591 5.43714 3.79902 5.57346C3.91214 5.70978 3.96646 5.88545 3.95006 6.06183C3.93365 6.23821 3.84784 6.40084 3.71152 6.51396C3.22824 6.91701 2.77411 7.35377 2.35252 7.82096L2.19452 7.99996C2.23452 8.04696 2.27852 8.09996 2.32552 8.14996L2.35152 8.17996C2.77276 8.64783 3.22728 9.08464 3.71152 9.48696C4.8931 10.5664 6.40343 11.2169 7.99952 11.334C8.39482 11.3325 8.78844 11.2825 9.17152 11.185C9.25642 11.1637 9.34468 11.1594 9.43125 11.1723C9.51782 11.1851 9.601 11.2149 9.67605 11.26C9.75109 11.305 9.81651 11.3644 9.86859 11.4348C9.92066 11.5051 9.95836 11.585 9.97952 11.67C10.0222 11.8414 9.99507 12.0228 9.90414 12.1743C9.81321 12.3258 9.66589 12.435 9.49452 12.478C9.00583 12.6022 8.50375 12.666 7.99952 12.668V12.667ZM12.7145 10.667C12.5773 10.6671 12.4434 10.6249 12.331 10.5462C12.2186 10.4674 12.1333 10.3559 12.0866 10.2269C12.0399 10.0979 12.0342 9.95761 12.0701 9.82519C12.1061 9.69277 12.182 9.57465 12.2875 9.48696C12.7715 9.08428 13.2256 8.64714 13.6465 8.17896C13.7045 8.11496 13.7565 8.05596 13.8045 7.99996L13.7935 7.98696C13.7485 7.93496 13.6995 7.87896 13.6475 7.82096C13.2262 7.3535 12.7721 6.91672 12.2885 6.51396C11.1063 5.43506 9.59575 4.7849 7.99952 4.66796C7.60766 4.66968 7.21746 4.71904 6.83752 4.81496C6.75249 4.83604 6.66414 4.84016 6.57752 4.82709C6.49089 4.81402 6.40769 4.78402 6.33266 4.7388C6.25763 4.69358 6.19224 4.63402 6.14023 4.56353C6.08822 4.49304 6.0506 4.41299 6.02952 4.32796C6.00844 4.24293 6.00432 4.15458 6.01739 4.06795C6.03046 3.98133 6.06046 3.89813 6.10568 3.8231C6.1509 3.74807 6.21046 3.68268 6.28095 3.63067C6.35144 3.57866 6.43149 3.54104 6.51652 3.51996C7.00147 3.398 7.49947 3.33554 7.99952 3.33396C9.9108 3.43417 11.7278 4.19562 13.1395 5.48796C13.6736 5.93219 14.1749 6.41445 14.6395 6.93096C14.7855 7.09196 14.9235 7.25296 15.0495 7.40996C15.0975 7.46896 15.1345 7.51496 15.1595 7.54796L15.1755 7.56896L15.1895 7.58696L15.1985 7.59796V7.60296L14.6825 7.98796L14.6665 7.99996L15.2015 7.59996C15.2873 7.7157 15.3335 7.85592 15.3335 7.99996C15.3335 8.144 15.2873 8.28422 15.2015 8.39996L15.1925 8.41196L15.1625 8.45096C15.1375 8.48296 15.1005 8.52996 15.0525 8.58896C14.9645 8.69696 14.8255 8.86496 14.6425 9.06796C14.1779 9.58447 13.6766 10.0667 13.1425 10.511C13.0226 10.6116 12.8711 10.6668 12.7145 10.667ZM14.6665 7.99996L15.2005 8.39996L14.6665 7.99996Z" fill="#1F1F39"/>
<path d="M3.2002 5.60039L8.0002 10.4004L12.8002 5.60039" stroke="#1F1F39" stroke-width="1.333" stroke-linecap="round" stroke-linejoin="round"/>
</svg>
