<svg width="13" height="15" viewBox="0 0 13 15" fill="none" xmlns="http://www.w3.org/2000/svg">
<path d="M12.0001 5.46795C12.3041 5.64349 12.5566 5.89597 12.7321 6.19999C12.9076 6.50402 13 6.84889 13 7.19995C13 7.55101 12.9076 7.89588 12.7321 8.19991C12.5566 8.50393 12.3041 8.75641 12.0001 8.93195L3.00009 14.1319C2.69605 14.3075 2.35117 14.3999 2.0001 14.3999C1.64903 14.3999 1.30415 14.3075 1.00011 14.132C0.696073 13.9564 0.443596 13.704 0.268056 13.3999C0.0925159 13.0959 9.63211e-05 12.751 8.7738e-05 12.3999V1.99995C9.63211e-05 1.64888 0.0925159 1.304 0.268056 0.999967C0.443596 0.695936 0.696073 0.443467 1.00011 0.267936C1.30415 0.0924058 1.64903 -2.22966e-06 2.0001 0C2.35117 2.22974e-06 2.69605 0.0924148 3.00009 0.267949L12.0001 5.46795Z" fill="white"/>
</svg>
