<svg width="18" height="21" viewBox="0 0 18 21" fill="none" xmlns="http://www.w3.org/2000/svg">
<path d="M16.1157 20.7486H1.88434C1.38475 20.7481 0.905778 20.5494 0.552513 20.1961C0.199248 19.8429 0.000544796 19.3639 2.81435e-07 18.8643V10.3889C-0.000272713 9.88874 0.19807 9.40898 0.551423 9.05504C0.904776 8.70111 1.38422 8.50198 1.88434 8.50144H3.2976V5.65744C3.29715 4.30739 3.78235 3.00222 4.66457 1.9803C5.5465 0.95914 6.76125 0.282904 8.09383 0.0712674C8.69455 -0.0237558 9.30648 -0.0237558 9.9072 0.0712674C11.2396 0.282717 12.4543 0.958563 13.3365 1.97927C14.219 3.00141 14.7042 4.30702 14.7034 5.65744V8.50144H16.1157C16.6158 8.50198 17.0952 8.70111 17.4486 9.05504C17.8019 9.40898 18.0003 9.88874 18 10.3889V18.8643C17.9995 19.3639 17.8008 19.8429 17.4475 20.1961C17.0942 20.5494 16.6152 20.7481 16.1157 20.7486ZM9 12.2485C8.77799 12.2598 8.5672 12.3495 8.40519 12.5017C8.24318 12.6539 8.14049 12.8587 8.11543 13.0796L8.10926 13.1897V16.0162C8.10919 16.2573 8.20166 16.4892 8.36759 16.6642C8.53352 16.8391 8.76025 16.9436 9.00103 16.9563C9.24198 16.9439 9.46898 16.8394 9.63513 16.6645C9.80127 16.4895 9.89388 16.2575 9.89383 16.0162V13.1897L9.88766 13.0796C9.8621 12.8584 9.75885 12.6534 9.59629 12.5012C9.43373 12.349 9.22242 12.2595 9 12.2485ZM9 1.88464C8.86011 1.88464 8.7336 1.89184 8.61326 1.90418L8.54537 1.91138C7.75323 2.00142 7.00965 2.33894 6.42039 2.87594C5.83113 3.41294 5.4262 4.12207 5.2632 4.90247C5.25703 4.93332 5.2488 4.96212 5.24057 4.9899C5.21255 5.14597 5.19435 5.30365 5.18606 5.46201V5.65435V8.50144H12.8232V5.65744V5.4651C12.8152 5.30676 12.7974 5.14908 12.7697 4.99298C12.7602 4.96437 12.7527 4.93517 12.7471 4.90555C12.584 4.12329 12.1779 3.41255 11.5868 2.87484C10.9957 2.33712 10.2498 1.99992 9.45566 1.91138L9.39394 1.90521H9.38674C9.2664 1.89184 9.13989 1.88464 9 1.88464Z" fill="white"/>
</svg>
