<svg width="22" height="20" viewBox="0 0 22 20" fill="none" xmlns="http://www.w3.org/2000/svg">
<path d="M20 20.0002C19.8686 20.0005 19.7385 19.9748 19.6172 19.9245C19.4958 19.8742 19.3856 19.8003 19.293 19.7072L12.665 13.0792C12.0019 13.4381 11.2406 13.5732 10.4945 13.4645C9.74845 13.3558 9.0574 13.0091 8.52425 12.4759C7.99111 11.9428 7.64439 11.2518 7.53569 10.5057C7.42699 9.75955 7.56213 8.9983 7.921 8.3352L1.292 1.7072C1.10449 1.51956 0.999204 1.26512 0.999297 0.999849C0.999391 0.734579 1.10486 0.480211 1.2925 0.292703C1.48014 0.105195 1.73458 -9.37036e-05 1.99985 6.25751e-08C2.26512 9.38288e-05 2.51949 0.105562 2.707 0.293203L20.707 18.2932C20.8468 18.4331 20.942 18.6112 20.9806 18.8052C21.0192 18.9991 20.9993 19.2002 20.9237 19.3829C20.848 19.5656 20.7199 19.7217 20.5555 19.8316C20.391 19.9415 20.1978 20.0002 20 20.0002ZM9.5 9.9162C9.5 9.9442 9.5 9.9722 9.5 10.0002C9.5 10.398 9.65804 10.7796 9.93934 11.0609C10.2206 11.3422 10.6022 11.5002 11 11.5002H11.084L9.5 9.9162ZM11 17.0002C8.13005 16.864 5.40001 15.7203 3.29 13.7702C2.4893 13.1042 1.738 12.381 1.042 11.6062C0.829 11.3692 0.622 11.1282 0.426 10.8882C0.355 10.8002 0.3 10.7302 0.262 10.6812L0.234 10.6442L0.217 10.6222L0.2 10.6072V10.6022C0.2 10.6022 0.2 10.6022 0.906 10.0702L0.2 10.6002C0.0701779 10.4271 0 10.2166 0 10.0002C0 9.78383 0.0701779 9.5733 0.2 9.4002C0.2 9.4002 0.267 9.4512 1 10.0002L0.978 10.0182L1 10.0002L0.2 9.4002V9.3942L0.213 9.3772L0.247 9.3342L0.262 9.3202C0.3 9.2732 0.35 9.2072 0.427 9.1122C0.627 8.8722 0.827 8.6312 1.043 8.3942C1.73868 7.61947 2.48965 6.89624 3.29 6.2302C3.39117 6.14612 3.50794 6.08282 3.63362 6.04393C3.7593 6.00505 3.89141 5.99135 4.02239 6.00361C4.15337 6.01587 4.28065 6.05386 4.39692 6.11539C4.5132 6.17693 4.61619 6.2608 4.7 6.3622C4.78372 6.46338 4.84669 6.58007 4.88532 6.70559C4.92395 6.8311 4.93747 6.963 4.92512 7.09375C4.91277 7.2245 4.87479 7.35153 4.81334 7.4676C4.7519 7.58366 4.66819 7.68649 4.567 7.7702C3.84184 8.37487 3.16078 9.03053 2.529 9.7322C2.442 9.8322 2.362 9.9202 2.292 10.0002C2.375 10.1002 2.452 10.1842 2.529 10.2692C3.1611 10.9702 3.84214 11.6256 4.567 12.2302C6.092 13.4942 8.447 15.0002 11 15.0002C11.5929 14.9976 12.1833 14.9223 12.758 14.7762C13.0135 14.717 13.282 14.7605 13.5057 14.8973C13.7294 15.0342 13.8904 15.2534 13.954 15.5078C14.0176 15.7622 13.9787 16.0315 13.8457 16.2575C13.7127 16.4835 13.4963 16.6482 13.243 16.7162C12.5097 16.902 11.7564 16.9973 11 17.0002ZM18.071 14.0002C17.8653 14.0002 17.6645 13.9367 17.4962 13.8184C17.3278 13.7002 17.2001 13.5329 17.1303 13.3393C17.0605 13.1457 17.0522 12.9354 17.1063 12.7369C17.1605 12.5384 17.2746 12.3615 17.433 12.2302C18.1588 11.6266 18.8399 10.9712 19.471 10.2692C19.558 10.1692 19.637 10.0822 19.708 10.0002C19.638 9.9182 19.56 9.8302 19.471 9.7322C18.8394 9.03039 18.1583 8.37471 17.433 7.7702C15.909 6.5062 13.555 5.0002 11 5.0002C10.4122 5.00247 9.82691 5.07635 9.257 5.2202C8.99961 5.28395 8.72744 5.24285 8.50034 5.10596C8.27325 4.96906 8.10982 4.74757 8.046 4.4902C7.98225 4.23281 8.02335 3.96064 8.16024 3.73355C8.29714 3.50645 8.51863 3.34302 8.776 3.2792C9.50332 3.09659 10.2501 3.00291 11 3.0002C14.152 3.0002 16.932 4.7572 18.709 6.2302C19.5097 6.8962 20.261 7.61944 20.957 8.3942C21.238 8.7062 21.447 8.9572 21.573 9.1122C21.65 9.2122 21.702 9.2742 21.738 9.3202L21.769 9.3592L21.783 9.3772L21.796 9.3942C21.796 9.3942 21.762 9.4252 21.009 9.9862L21.8 9.4002C21.9289 9.57368 21.9985 9.78407 21.9985 10.0002C21.9985 10.2163 21.9289 10.4267 21.8 10.6002L21.794 10.6082L21.781 10.6242L21.736 10.6822C21.698 10.7312 21.642 10.8012 21.571 10.8892C21.445 11.0442 21.236 11.2952 20.955 11.6072C20.259 12.382 19.5077 13.1052 18.707 13.7712C18.528 13.919 18.3032 14 18.071 14.0002Z" fill="#1F1F39"/>
</svg>
